<svg width="20" height="20" role="img" aria-hidden="true" xmlns="http://www.w3.org/2000/svg" viewBox="0 0 32 32"><path d="M19.8 11.9c-1.1-1.1-2.7-1.8-4.3-1.8s-3.2.7-4.3 1.8c-1.1 1.1-1.8 2.7-1.8 4.3 0 1.7.7 3.2 1.8 4.3 1.1 1.1 2.7 1.8 4.3 1.8s3.2-.7 4.3-1.8c1.1-1.1 1.8-2.7 1.8-4.3s-.6-3.2-1.8-4.3zm7.1 3.5h-2.5c-.5 0-.8.4-.8.8s.4.8.8.8h2.5c.5 0 .8-.4.8-.8s-.4-.8-.8-.8zm-11.4 8.9c-.5 0-.8.4-.8.8v2.5c0 .5.4.8.8.8.5 0 .8-.4.8-.8v-2.5c0-.4-.3-.8-.8-.8zm8.6-.5L22.4 22c-.3-.3-.8-.3-1.2 0s-.3.8 0 1.2L23 25c.3.3.8.3 1.2 0 .3-.4.3-.9-.1-1.2zM15.5 4c-.5 0-.8.4-.8.8v2.5c0 .5.4.8.8.8.5 0 .8-.4.8-.8V4.9c0-.5-.3-.9-.8-.9zm8.7 3.6c-.3-.3-.8-.3-1.2 0l-1.8 1.8c-.3.3-.3.8 0 1.2.3.3.8.3 1.2 0l1.8-1.8c.3-.3.3-.8 0-1.2zM6.6 15.4H4.1c-.5 0-.8.4-.8.8 0 .5.4.8.8.8h2.5c.5 0 .8-.4.8-.8s-.3-.8-.8-.8zM9.8 22c-.3-.3-.8-.3-1.2 0l-1.8 1.8c-.3.3-.3.8 0 1.2.3.3.8.3 1.2 0l1.8-1.8c.3-.4.3-.9 0-1.2zm0-12.6L8 7.6c-.3-.3-.8-.3-1.2 0-.3.4-.3.9 0 1.2l1.8 1.8c.3.3.8.3 1.2 0 .3-.3.3-.9 0-1.2z"/></svg>