<svg class="name" xmlns="http://www.w3.org/2000/svg" viewBox="0 0 355.88 80.7" role="img"><rect width="12.2" height="80.7" style="fill:#fff"/><polygon points="21.07 12.22 25.73 12.22 22.51 23.75 27.5 23.75 32.83 10.95 32.83 0 21.07 0 21.07 12.22" style="fill:#fff"/><polygon points="67.54 57.29 58.55 0 41.59 0 41.59 80.7 52.23 80.7 52.23 23.63 61.33 80.7 72.86 80.7 81.29 22.82 81.29 80.7 92.82 80.7 92.82 0 75.85 0 67.54 57.29" style="fill:#fff"/><path d="M140.8,2.89h-18v80.7H135V53.27h5.76c12.2,0,18.19-7,18.19-19.94V22.84C159,9.93,153,2.89,140.8,2.89Zm6,31.25c0,5.76-2.11,7.6-6,7.6H135V14.42h5.76c3.88,0,6,1.85,6,7.61Z" transform="translate(-3.95 -2.89)" style="fill:#fff"/><polygon points="161.25 80.7 194.52 80.7 194.52 69.17 173.44 69.17 173.44 45.54 190.19 45.54 190.19 34.01 173.44 34.01 173.44 11.53 194.52 11.53 194.52 0 161.25 0 161.25 80.7" style="fill:#fff"/><polygon points="198.51 11.53 211.26 11.53 211.26 80.7 223.46 80.7 223.46 11.53 236.22 11.53 236.22 0 198.51 0 198.51 11.53" style="fill:#fff"/><polygon points="241.54 80.7 274.81 80.7 274.81 69.17 253.74 69.17 253.74 45.54 270.48 45.54 270.48 34.01 253.74 34.01 253.74 11.53 274.81 11.53 274.81 0 241.54 0 241.54 80.7" style="fill:#fff"/><path d="M340.09,61.34c0-8.41-2-14.52-8.09-17.18,5.43-2.65,8-8.06,8-16.37V21.45C340,9,334.55,2.89,321.9,2.89H303.49v80.7h12.2V50.74h4.22c5.54,0,8,2.76,8,10.26V73.68c0,6.57.45,7.84,1.11,9.91h12.42c-1.22-3-1.33-5.88-1.33-9.8ZM327.78,30.68c0,6.45-2.77,8.53-7.32,8.53h-4.77V14.42h5.88c4.33,0,6.21,2.54,6.21,8.3Z" transform="translate(-3.95 -2.89)" style="fill:#fff"/><rect x="344.12" y="68.48" width="11.75" height="12.22" style="fill:#fff"/></svg>