<svg role="img" class="welcome" xmlns="http://www.w3.org/2000/svg" viewBox="0 0 954.19 253.11"><path d="M142.43,100.51,140.12,117q-2.15,16.93-4.07,34.51t-3.46,36.43q-1.53-17.9-3.92-37.55t-5.92-42.66L106.77,4H82.17L65.11,110.74q-2.47,14.85-4.54,32.43t-3.92,38.51l-.77,8c-.21-2.13-.36-3.88-.46-5.27s-.21-2.34-.31-2.88l-1.69-20.93q-.91-11.34-2.77-25.09L48,118.56,31.9,4H1L42.05,250.71H67.72L85.09,144.13q.3-1.11.92-5.75T87.7,125.6L90.93,102q.15-1.28.69-7.11t1.31-16.38c.1-1.17.25-2.66.46-4.48S93.8,70,94,67.59l.76,10.23c.52,5.86,1,10.7,1.47,14.54s.79,6.71,1,8.63l3.23,24.61q1.23,8.63,1.85,13.26c.41,3.09.66,4.85.77,5.27l16.75,106.58h24.91L186.7,4H156.11Z" transform="translate(-1 -0.64)" style="fill:#fff"/><polygon points="204.46 250.07 289.47 250.07 289.47 221.95 236.44 221.95 236.44 137.74 283.48 137.74 283.48 109.62 236.44 109.62 236.44 31.48 289.47 31.48 289.47 3.35 204.46 3.35 204.46 250.07" style="fill:#fff"/><polygon points="350.81 3.35 318.83 3.35 318.83 250.07 403.08 250.07 403.08 221.95 350.81 221.95 350.81 3.35" style="fill:#fff"/><path d="M434.75,32.92q-17.61,32.28-17.61,98.43,0,122.4,72.1,122.4A50.45,50.45,0,0,0,515.07,247V216.52q-11.07,5.11-18.91,5.11-45,0-45-91.4a331.31,331.31,0,0,1,2.53-44q2.53-18.61,7.84-30.76t13.46-18q8.15-5.84,19.52-5.83,8.29,0,20.6,6.23V8A53.42,53.42,0,0,0,488.63.64Q452.35.64,434.75,32.92Z" transform="translate(-1 -0.64)" style="fill:#fff"/><path d="M640.82,22.05Q626.38.81,596.54.8,563.18.8,549.2,28.28q-13.85,27.33-13.84,93.16,0,73.83,14,102.75,14.14,29.57,48.73,29.56,32.89,0,46.89-27.49t14-92.83q0-46.67-4.31-71Q650.35,36.28,640.82,22.05Zm-21.37,182.8q-6,18.54-22.14,18.54-16.44,0-22.44-19.82Q569,182.65,569,128.47q0-58.8,5.53-78.3,5.69-19.32,22.75-19.33t22.6,21.09q5.54,20.94,5.54,85Q625.45,186.47,619.45,204.85Z" transform="translate(-1 -0.64)" style="fill:#fff"/><path d="M794.24,4l-18.6,98.92-3.54,17.73-4,26.85-4.46,28.28a16.55,16.55,0,0,0-.31,2.16c-.1,1-.26,2.42-.46,4.23q-2.61-20.78-5.77-39.71t-7-37.79L729.21,4H701.85L682.33,250.71h30.13l9.22-170q2.46,20.78,5.46,39.71T734,157.71l18.75,93h21.53l20-107.7,1.54-8.47,4-22.53c.52-3,1.1-6.65,1.77-11s1.41-9.48,2.23-15.34l.77-5c.1,1.18.18,2.11.23,2.8s.08,1.15.08,1.36l.77,30.36L807,148.29q0,3,.23,7.67t.54,11l5.38,83.73h30.59L821.91,4Z" transform="translate(-1 -0.64)" style="fill:#fff"/><polygon points="954.2 31.48 954.2 3.35 869.18 3.35 869.18 250.07 954.2 250.07 954.2 221.95 901.16 221.95 901.16 137.74 948.2 137.74 948.2 109.62 901.16 109.62 901.16 31.48 954.2 31.48" style="fill:#fff"/></svg>