<svg xmlns="http://www.w3.org/2000/svg" viewBox="0 0 20 25.5" width="20" height="25.5"><style>.st0{fill:#fcfcfc}</style><path d="M10 25c-.9 0-1.5-.6-1.5-1.5V10.1l-5.4 5.4c-.3.4-.7.5-1.1.5s-.8-.2-1.1-.4c-.6-.6-.6-1.5 0-2.1l8-8c.1-.1.3-.2.4-.3.3-.2.6-.2.7-.2s.4 0 .6.1c.2.1.3.2.4.3l8 8c.6.6.6 1.5 0 2.1-.2.4-.6.5-1 .5s-.8-.2-1.1-.4l-5.4-5.4v13.4c0 .8-.6 1.4-1.5 1.4z"/><path class="st0" d="M10 5.5c.1 0 .3 0 .4.1.1 0 .2.1.3.2l8 8c.4.4.4 1 0 1.4-.2.2-.5.3-.7.3s-.5-.1-.7-.3L11 8.9v14.6c0 .6-.4 1-1 1s-1-.4-1-1V8.9l-6.3 6.3c-.2.2-.5.3-.7.3s-.5-.1-.7-.3c-.4-.4-.4-1 0-1.4l8-8c.1-.1.2-.2.3-.2.1-.1.3-.1.4-.1m0-1c-.2 0-.5 0-.8.2-.3.1-.5.3-.6.4l-8 8c-.8.8-.8 2 0 2.8.4.4.9.6 1.4.6s1-.2 1.4-.6L8 11.3v12.2c0 1.2.8 2 2 2s2-.8 2-2V11.3l4.6 4.6c.4.4.9.6 1.4.6s1-.2 1.4-.6c.8-.8.8-2 0-2.8l-8-8c-.1-.1-.3-.3-.6-.4-.3-.2-.6-.2-.8-.2z"/><g><path d="M2 3.5C1.2 3.5.5 2.8.5 2S1.2.5 2 .5h16c.8 0 1.5.7 1.5 1.5s-.7 1.5-1.5 1.5H2z"/><path class="st0" d="M18 1c.6 0 1 .4 1 1s-.4 1-1 1H2c-.6 0-1-.4-1-1s.4-1 1-1h16m0-1H2C.9 0 0 .9 0 2s.9 2 2 2h16c1.1 0 2-.9 2-2s-.9-2-2-2z"/></g></svg>