<svg xmlns="http://www.w3.org/2000/svg" viewBox="0 0 382.47 176.18" role="img"><g opacity="1"><path d="M134.3 122.88v1.48a9.28 9.28 0 0 0-3.58 2.84 17.32 17.32 0 0 0-2.91 5.94l-13 42.14c-.54 0-1.4-.08-2.58-.08l-2.6.08-10.83-32.92-10.92 32.92c-.55 0-1.4-.08-2.6-.08l-2.58.08-16.53-46.2a8.47 8.47 0 0 0-2.17-3.54 4.18 4.18 0 0 0-2.51-1.18v-1.48c3 .15 6.62.23 11 .22l9.07-.22v1.48a2.66 2.66 0 0 0-2.56 2.73v.15a12.17 12.17 0 0 0 .67 3.32l10.77 31.2 7.45-22-3.76-11.44a6.74 6.74 0 0 0-1.74-3 4.16 4.16 0 0 0-2.32-1v-1.48c2.75.15 6.27.23 10.55.22q7.23 0 10.63-.22v1.48a10.46 10.46 0 0 0-3.84.63 2.09 2.09 0 0 0-1.18 2.1 11.16 11.16 0 0 0 .74 3.47l10.1 30.84 7-22.28a31.65 31.65 0 0 0 1.7-8.56q0-3.18-1.6-4.6a7.47 7.47 0 0 0-4.76-1.59v-1.48c3.33.15 6.38.23 9.15.22l5.7-.2zm42.1 2.15a22.23 22.23 0 0 1 9.11 9.19 29.68 29.68 0 0 1 3.25 14.35 30.34 30.34 0 0 1-3.32 14.39 24.06 24.06 0 0 1-9.26 9.74 26.24 26.24 0 0 1-13.54 3.47 28.33 28.33 0 0 1-13.64-3.14 22.25 22.25 0 0 1-9.12-9.19 29.9 29.9 0 0 1-3.24-14.35 30.26 30.26 0 0 1 3.27-14.46 24.06 24.06 0 0 1 9.26-9.74 26.44 26.44 0 0 1 13.54-3.47 28.45 28.45 0 0 1 13.69 3.21zm-21.14 1.44a21.6 21.6 0 0 0-4.76 9.19 49.61 49.61 0 0 0-1.66 13.5 43.86 43.86 0 0 0 1.88 13.51 21.88 21.88 0 0 0 5.09 9 9.88 9.88 0 0 0 7.12 3.17 9.59 9.59 0 0 0 7.16-3.28 21.77 21.77 0 0 0 4.76-9.19 49.61 49.61 0 0 0 1.66-13.5 44.16 44.16 0 0 0-1.88-13.51 22 22 0 0 0-5.09-9 10 10 0 0 0-7.13-3.17 9.57 9.57 0 0 0-7.15 3.28zm88.64 45.4a12.2 12.2 0 0 1-4.28 3.29 13.8 13.8 0 0 1-5.53 1 11.12 11.12 0 0 1-6.75-1.81c-1.65-1.2-2.72-3.26-3.2-6.16l-1.33-7.38a28.15 28.15 0 0 0-2.33-7.93 4.74 4.74 0 0 0-4.54-2.55h-4.8v17a14.52 14.52 0 0 0 .4 4 2.54 2.54 0 0 0 1.46 1.7 12.63 12.63 0 0 0 3.61.59v1.48c-2.65-.15-6.37-.22-11.14-.22-5.27 0-9.15.07-11.66.22v-1.48a12.42 12.42 0 0 0 3.58-.59 2.56 2.56 0 0 0 1.55-1.7 14.52 14.52 0 0 0 .4-4.05v-36.6a14.59 14.59 0 0 0-.4-4.06 2.56 2.56 0 0 0-1.55-1.7 12.42 12.42 0 0 0-3.58-.59v-1.5c2.51.15 6.25.23 11.22.22l8.2-.07c1.13 0 2.27-.07 3.4-.07q10.2 0 15.3 3.32a10.66 10.66 0 0 1 5.13 9.52 12.93 12.93 0 0 1-3.83 9.22q-3.84 4-12.7 5 6.65.59 9.9 2.88a10.63 10.63 0 0 1 4.21 6.86l1.7 7.6a12.55 12.55 0 0 0 1.36 4.13 2.45 2.45 0 0 0 2.18 1.18 3.48 3.48 0 0 0 1.51-.44 6.35 6.35 0 0 0 1.44-1.25zm-31.1-47a2.81 2.81 0 0 0-1.29 1.84 15.82 15.82 0 0 0-.37 4v18.15h3.17q6 0 8.3-3.2t2.25-9c0-4-.7-7.1-2.14-9.15s-3.76-3.1-7-3.1a6.21 6.21 0 0 0-2.92.47zm55.37-.52a14.59 14.59 0 0 0-3.88.59 2.63 2.63 0 0 0-1.66 1.7 13.54 13.54 0 0 0-.44 4.06v37.48a11.33 11.33 0 0 0 .37 3.43 2.23 2.23 0 0 0 1.29 1.44 8.71 8.71 0 0 0 3 .37h3.62q5 0 8.67-4.5t4.76-12h1.7l-.22 6.5a105.57 105.57 0 0 0 .52 11.66q-5-.23-16.9-.22-16.1 0-24.06.22v-1.48a12.42 12.42 0 0 0 3.58-.59 2.56 2.56 0 0 0 1.55-1.7 14.16 14.16 0 0 0 .41-4.05v-36.6a14.23 14.23 0 0 0-.41-4.06 2.56 2.56 0 0 0-1.55-1.7 12.42 12.42 0 0 0-3.58-.59v-1.48c2.51.15 6.4.23 11.66.22q7.53 0 11.6-.22zm66.2 5.05q7.15 6.54 7.16 19a27.42 27.42 0 0 1-3.51 14 23.63 23.63 0 0 1-10.11 9.34 34.82 34.82 0 0 1-15.75 3.29l-4.58-.08-6.2-.14q-7.61 0-11.37.22v-1.48a12.42 12.42 0 0 0 3.58-.59 2.56 2.56 0 0 0 1.55-1.7 14.16 14.16 0 0 0 .41-4v-36.6a14.23 14.23 0 0 0-.41-4.06 2.56 2.56 0 0 0-1.55-1.7 12.42 12.42 0 0 0-3.58-.59v-1.48l8.93.22h2.3l3-.07q6-.15 8.63-.15 14.36.06 21.5 6.6zm-25-4.68a2.92 2.92 0 0 0-1.59 1.84 13.8 13.8 0 0 0-.44 4v36.9a13.8 13.8 0 0 0 .44 4 2.92 2.92 0 0 0 1.59 1.84 8.87 8.87 0 0 0 3.5.52q8.92 0 12.7-6.24t3.77-18.85q0-12.62-3.88-18.56t-12.65-5.94a8.42 8.42 0 0 0-3.48.5z" fill="#edbf22"/><path d="M44.35 7.59q7.17 6.54 7.16 19A27.44 27.44 0 0 1 48 40.65a23.84 23.84 0 0 1-10.1 9.38 34.86 34.86 0 0 1-15.76 3.32l-4.57-.08-6.2-.14q-7.6 0-11.37.22v-1.5a12.42 12.42 0 0 0 3.58-.59 2.52 2.52 0 0 0 1.55-1.69 14.23 14.23 0 0 0 .41-4.06V8.89a14.23 14.23 0 0 0-.41-4.06 2.51 2.51 0 0 0-1.55-1.7A13 13 0 0 0 0 2.54V1.03c2.07.15 5 .23 8.93.23h2.27l2.95-.08 8.65-.15q14.4 0 21.54 6.57zm-25-4.68a3 3 0 0 0-1.59 1.84 13.8 13.8 0 0 0-.44 4v36.88a13.8 13.8 0 0 0 .44 4 2.92 2.92 0 0 0 1.59 1.84 8.74 8.74 0 0 0 3.51.52q8.92 0 12.7-6.23t3.76-18.86q0-12.6-3.87-18.56t-12.7-6a8.71 8.71 0 0 0-3.43.52zm60.05-.38a12.69 12.69 0 0 0-3.62.59 2.57 2.57 0 0 0-1.51 1.7 14.23 14.23 0 0 0-.41 4.06v36.6a14.23 14.23 0 0 0 .41 4.06 2.55 2.55 0 0 0 1.51 1.69 12.69 12.69 0 0 0 3.62.59v1.48c-2.67-.15-6.38-.23-11.15-.22-5.27 0-9.15.07-11.66.22v-1.47a12.42 12.42 0 0 0 3.58-.59 2.54 2.54 0 0 0 1.55-1.69 14.23 14.23 0 0 0 .41-4.06V8.89a14.23 14.23 0 0 0-.41-4.06 2.56 2.56 0 0 0-1.55-1.7 13.15 13.15 0 0 0-3.58-.59V1.03q3.77.22 11.66.23 7.16 0 11.15-.23zm29.52-1.7a22.92 22.92 0 0 1 4.65 2.2l1.44.74a2.53 2.53 0 0 0 1.07.3 1.13 1.13 0 0 0 1-.78 8.41 8.41 0 0 0 .59-2.47h1.7Q119 5.71 119 17.58h-1.7a24.31 24.31 0 0 0-1.8-7.6 14.83 14.83 0 0 0-4.28-5.86 10 10 0 0 0-6.46-2.25 8.44 8.44 0 0 0-5.87 2 7 7 0 0 0-2.25 5.5 8.74 8.74 0 0 0 1.11 4.5 12.54 12.54 0 0 0 3.1 3.51q2 1.61 6.12 4.32l2.36 1.62a71.69 71.69 0 0 1 6.87 5 18.1 18.1 0 0 1 4.09 5 13.31 13.31 0 0 1 1.59 6.6 12.67 12.67 0 0 1-2.44 7.93 14.81 14.81 0 0 1-6.6 4.84 25.46 25.46 0 0 1-9.26 1.62 26.87 26.87 0 0 1-6.86-.74 22 22 0 0 1-5-2 5.35 5.35 0 0 0-2.51-1 1.14 1.14 0 0 0-1 .77 8.47 8.47 0 0 0-.59 2.48h-1.7q.28-4.65.3-19.93h1.7q.5 8.27 3.7 13.4t9.74 5.12a9.88 9.88 0 0 0 6.64-2.14 7.49 7.49 0 0 0 2.58-6.12 10.19 10.19 0 0 0-2.71-7.12 42.49 42.49 0 0 0-8.41-6.64q-4.42-2.88-7.08-5A18.44 18.44 0 0 1 88 20.37a13.18 13.18 0 0 1-1.69-6.75 12.31 12.31 0 0 1 2.21-7.5 13.36 13.36 0 0 1 6-4.54A22.45 22.45 0 0 1 102.79.1a20.77 20.77 0 0 1 6.13.74zm52.84.46a25.54 25.54 0 0 1 6 3.54 2.38 2.38 0 0 0 1.4.66c1 0 1.62-1.47 1.92-4.43h1.7q-.3 5-.3 17.86h-1.7a36.55 36.55 0 0 0-1.78-8.34 11.84 11.84 0 0 0-3.76-5A12.65 12.65 0 0 0 161 2.87a14.5 14.5 0 0 0-5.09-.92q-7.45 0-11.07 7.27t-3.62 18.1q0 10.8 3.77 18t11.2 7.23a14.47 14.47 0 0 0 5-.92 11.06 11.06 0 0 0 4.17-2.69 10.78 10.78 0 0 0 3.8-5.17 41.26 41.26 0 0 0 1.66-9.08h1.7q0 13.37.3 18.6h-1.7a13.29 13.29 0 0 0-.63-3.36c-.27-.67-.65-1-1.14-1a3.1 3.1 0 0 0-1.55.59 31.45 31.45 0 0 1-6.35 3.57 19.33 19.33 0 0 1-7.3 1.22 28.33 28.33 0 0 1-13.69-3.17 22.27 22.27 0 0 1-9.12-9.11 29.9 29.9 0 0 1-3.24-14.35 30.22 30.22 0 0 1 3.32-14.39 24.06 24.06 0 0 1 9.26-9.74A26.34 26.34 0 0 1 154.22.03a20.15 20.15 0 0 1 7.53 1.27zm58.18 1.9a22.16 22.16 0 0 1 9.06 9.19 29.68 29.68 0 0 1 3.25 14.35A30.33 30.33 0 0 1 229 41.12a24.06 24.06 0 0 1-9.26 9.74 26.24 26.24 0 0 1-13.54 3.47 28.33 28.33 0 0 1-13.69-3.17 22.17 22.17 0 0 1-9.13-9.13 29.68 29.68 0 0 1-3.25-14.35 30.34 30.34 0 0 1 3.32-14.39 24.06 24.06 0 0 1 9.26-9.74A26.34 26.34 0 0 1 206.25.03a28.43 28.43 0 0 1 13.69 3.18zM198.8 4.63a21.75 21.75 0 0 0-4.8 9.19 49.61 49.61 0 0 0-1.66 13.5 44.16 44.16 0 0 0 1.88 13.51 22 22 0 0 0 5.09 9 9.94 9.94 0 0 0 7.16 3.2 9.54 9.54 0 0 0 7.16-3.28 21.77 21.77 0 0 0 4.76-9.19A49.8 49.8 0 0 0 220 27.03a44.16 44.16 0 0 0-1.88-13.51 21.88 21.88 0 0 0-5.09-9 10 10 0 0 0-7.12-3.17 9.57 9.57 0 0 0-7.11 3.28zm85.08-3.6v1.5a8.72 8.72 0 0 0-3.61 2.8 20.48 20.48 0 0 0-3.18 6l-15.57 42.12c-.54 0-1.4-.08-2.58-.08l-2.5.08-18.8-46.2a9.32 9.32 0 0 0-2.22-3.54A4.16 4.16 0 0 0 233 2.53v-1.5c3 .15 6.69.23 11.2.23q7.6 0 11.22-.23v1.5a13 13 0 0 0-4 .66 2 2 0 0 0-1.18 2.07 10.16 10.16 0 0 0 .89 3.47l13 33.06 9.07-24.5a28.22 28.22 0 0 0 2.07-9 5.29 5.29 0 0 0-1.6-4.26 7.58 7.58 0 0 0-4.67-1.5v-1.5c3.33.15 6.41.23 9.22.23a39.86 39.86 0 0 0 5.67-.23zm42.72 52.28q-5-.22-16.9-.22-16.09 0-24.06.22v-1.48a12.42 12.42 0 0 0 3.58-.59 2.54 2.54 0 0 0 1.55-1.69 14.23 14.23 0 0 0 .41-4.06V8.89a14.23 14.23 0 0 0-.41-4.06 2.56 2.56 0 0 0-1.55-1.7 13.15 13.15 0 0 0-3.58-.59V1.03q8 .22 24.06.23 10.85 0 15.42-.23c-.33 4.09-.5 7.74-.5 10.93a43.92 43.92 0 0 0 .22 5h-1.7q-1.14-7.93-4-11.07T311 2.77h-3a10.63 10.63 0 0 0-3.32.37 2.23 2.23 0 0 0-1.4 1.44 11.47 11.47 0 0 0-.36 3.45v18.3h2.36a6.81 6.81 0 0 0 5.94-2.88 17.79 17.79 0 0 0 2.8-6.88h1.7c-.15 2.07-.23 4.38-.22 6.94v3.52c0 2.51.15 6 .44 10.48h-1.7q-1.56-9.75-9-9.74h-2.33v18.6a11.33 11.33 0 0 0 .37 3.43 2.21 2.21 0 0 0 1.4 1.44 10.63 10.63 0 0 0 3.32.37h3.62a10.81 10.81 0 0 0 8.45-3.58q3.19-3.57 4.54-12.14h1.7l-.22 6.2a98 98 0 0 0 .52 11.23zm55.87-3.28a12.41 12.41 0 0 1-4.28 3.29 13.81 13.81 0 0 1-5.54 1 11.19 11.19 0 0 1-6.75-1.81c-1.65-1.2-2.71-3.25-3.2-6.16l-1.34-7.32a28.3 28.3 0 0 0-2.36-8 4.74 4.74 0 0 0-4.54-2.55h-4.8v17a14.23 14.23 0 0 0 .41 4.06 2.55 2.55 0 0 0 1.51 1.69 12.69 12.69 0 0 0 3.62.59v1.48c-2.67-.15-6.38-.23-11.14-.22-5.27 0-9.15.07-11.66.22v-1.47a12.78 12.78 0 0 0 3.58-.59 2.56 2.56 0 0 0 1.55-1.69 14.59 14.59 0 0 0 .4-4.06V8.89a14.59 14.59 0 0 0-.4-4.06 2.59 2.59 0 0 0-1.53-1.7 13.21 13.21 0 0 0-3.58-.59V1.03c2.5.15 6.24.23 11.2.23l8.2-.08c1 0 2.12-.07 3.4-.07q10.18 0 15.3 3.32a10.64 10.64 0 0 1 5.13 9.6 12.89 12.89 0 0 1-3.84 9.22q-3.84 4-12.7 5 6.64.6 9.9 2.88a10.66 10.66 0 0 1 4.2 6.86l1.7 7.6a12.27 12.27 0 0 0 1.37 4.13 2.44 2.44 0 0 0 2.17 1.18 3.39 3.39 0 0 0 1.52-.44 6.83 6.83 0 0 0 1.43-1.25zm-31.1-47a2.87 2.87 0 0 0-1.29 1.84 16.3 16.3 0 0 0-.37 4v18.16h3.18q6 0 8.3-3.2t2.25-9q0-6-2.14-9.15t-7-3.1a6.12 6.12 0 0 0-2.93.46zM70 74.65l.22 5.6h-1.7q-1.77-9.07-4.83-12.77a10.28 10.28 0 0 0-8.37-3.69h-1.7v42.14a11.64 11.64 0 0 0 .63 4.5 3.31 3.31 0 0 0 2.21 1.88 20.91 20.91 0 0 0 5.05.56v1.47q-9.3-.23-14-.22t-13.5.22v-1.47a20.56 20.56 0 0 0 5-.56 3.37 3.37 0 0 0 2.22-1.88 11.64 11.64 0 0 0 .63-4.5V63.8H40.3a11.17 11.17 0 0 0-6 1.55 12.37 12.37 0 0 0-4.3 5.13 41.31 41.31 0 0 0-3 9.78h-1.7c.15-1.43.22-3.3.22-5.6q0-5.53-.5-12.54 6.7.19 22.8.22t22.73-.22Q70 69.13 70 74.66zm55.45-10.48a2.57 2.57 0 0 0-1.51 1.7 14.23 14.23 0 0 0-.41 4.06v36.6a14.23 14.23 0 0 0 .41 4.06 2.57 2.57 0 0 0 1.51 1.7 12.63 12.63 0 0 0 3.61.59v1.47c-2.41-.15-6.15-.22-11.2-.22s-8.93.07-11.6.22v-1.47a13.15 13.15 0 0 0 3.58-.59 2.58 2.58 0 0 0 1.55-1.7 14.23 14.23 0 0 0 .41-4.06v-17.7H92.26v17.7a14.23 14.23 0 0 0 .41 4.06 2.57 2.57 0 0 0 1.51 1.7 12.69 12.69 0 0 0 3.62.59v1.47c-2.67-.15-6.38-.22-11.15-.22-5.27 0-9.15.07-11.66.22v-1.47a13.15 13.15 0 0 0 3.58-.59 2.56 2.56 0 0 0 1.55-1.7 14.23 14.23 0 0 0 .41-4.06v-36.6a14.23 14.23 0 0 0-.41-4.06 2.56 2.56 0 0 0-1.55-1.7 13 13 0 0 0-3.57-.59v-1.47c2.5.14 6.4.22 11.66.22 4.77 0 8.5-.08 11.15-.22v1.47a12.69 12.69 0 0 0-3.62.59 2.57 2.57 0 0 0-1.51 1.7 14.23 14.23 0 0 0-.41 4.06v17.4h19.53v-17.4a14.23 14.23 0 0 0-.41-4.06 2.56 2.56 0 0 0-1.55-1.7 13.15 13.15 0 0 0-3.58-.59v-1.47c2.76.14 6.62.22 11.6.22s8.8-.08 11.2-.22v1.47a12.63 12.63 0 0 0-3.61.59zM175 114.35q-5-.22-16.9-.22-16.08 0-24.05.22v-1.47a13.21 13.21 0 0 0 3.58-.59 2.63 2.63 0 0 0 1.55-1.7 14.59 14.59 0 0 0 .4-4.06v-36.6a14.59 14.59 0 0 0-.4-4.06 2.58 2.58 0 0 0-1.55-1.7 13.21 13.21 0 0 0-3.58-.59v-1.47q8 .2 24.05.22 10.86 0 15.43-.22-.53 6.12-.53 10.92a43.92 43.92 0 0 0 .22 5h-1.7q-1.09-7.91-4-11.07t-8.12-3.18h-3a10.93 10.93 0 0 0-3.32.37 2.25 2.25 0 0 0-1.41 1.44 11.68 11.68 0 0 0-.36 3.43v18.3h2.36a6.86 6.86 0 0 0 5.94-2.87 18.13 18.13 0 0 0 2.84-6.87h1.7L164 84.5v3.53q0 3.77.45 10.48h-1.7q-1.55-9.74-9-9.74h-2.36v18.6a11.68 11.68 0 0 0 .36 3.43 2.25 2.25 0 0 0 1.41 1.44 10.92 10.92 0 0 0 3.32.36H160a10.81 10.81 0 0 0 8.45-3.57q3.2-3.6 4.54-12.14h1.7c-.15 1.62-.22 3.7-.22 6.2a100.63 100.63 0 0 0 .53 11.25z" fill="var(--text-color)"/></g></svg>